<svg xmlns="http://www.w3.org/2000/svg" viewBox="0 0 32 32" role="img" aria-label="WhatsApp">
  <defs>
    <linearGradient id="waGradient" x1="0" y1="0" x2="1" y2="1">
      <stop offset="0%" stop-color="#25D366"/>
      <stop offset="100%" stop-color="#128C7E"/>
    </linearGradient>
  </defs>
  <circle cx="16" cy="16" r="16" fill="url(#waGradient)"/>
  <path fill="#ffffff" d="M22.4 9.6A7.5 7.5 0 0 0 16 7a7.5 7.5 0 0 0-7.5 7.5c0 1.3.3 2.5.9 3.6L8 25l7-1.4a7.6 7.6 0 0 0 3.1.6h.1A7.5 7.5 0 0 0 22.4 9.6Zm-2 8.7c-.3.8-1.7 1.5-2.4 1.6-.6.1-1.3.1-2.1-.1a9 9 0 0 1-4.8-3.4 5.3 5.3 0 0 1-1-2.8c0-.7.3-1.1.4-1.2.2-.2.5-.3.7-.3h.5c.1 0 .3-.1.4.3.2.6.6 1.9.7 2-.1.1-.1.2-.2.3l-.3.4c-.1.1-.2.2-.1.4.2.4.8 1.4 1.8 2.1 1.1.7 1.9.9 2.3 1 .2 0 .3 0 .4-.1l.5-.6c.1-.1.2-.2.4-.2h.4c.2 0 1.3.6 1.4.7.1.1.3.1.3.2Z"/>
</svg>
